<svg width="67" height="94" viewBox="0 0 67 94" fill="#EB5757" xmlns="http://www.w3.org/2000/svg">
<path d="M33.6913 0.150391C15.4582 0.150391 0.625 14.9853 0.625 33.2206C0.625 50.8607 30.8554 91.051 32.1431 92.7551C32.5049 93.2415 33.0846 93.5254 33.6915 93.5254C34.2983 93.5254 34.878 93.2415 35.2398 92.7551C36.5274 91.051 66.7579 50.8609 66.7579 33.2206C66.7576 14.9853 51.9244 0.150391 33.6913 0.150391ZM33.6913 50.7285C24.0398 50.7285 16.1856 42.8733 16.1856 33.2206C16.1856 23.568 24.0398 15.7128 33.6913 15.7128C43.3428 15.7128 51.197 23.568 51.197 33.2206C51.197 42.8733 43.3428 50.7285 33.6913 50.7285Z" fill="#EB5757"/>
</svg>
