<svg width="48" height="48" viewBox="0 0 48 48" fill="none" xmlns="http://www.w3.org/2000/svg">
<g clip-path="url(#clip0)">
<path d="M35.2194 11.5602C35.2194 14.7371 34.0801 17.4869 31.8326 19.7347C29.5852 21.9822 26.835 23.1215 23.6581 23.1215H23.6526C20.4797 23.1204 17.7313 21.9811 15.4839 19.7347C13.2361 17.4869 12.0972 14.7371 12.0972 11.5602C12.0972 8.3844 13.2361 5.63416 15.4839 3.38672C17.7302 1.14001 20.4786 0.00109864 23.6526 0H23.6581C26.8339 0 29.5841 1.13928 31.8326 3.38672C34.0801 5.63416 35.2194 8.3844 35.2194 11.5602Z" fill="#FFBB85"/>
<path d="M43.9845 39.7461C43.9845 42.2524 43.1873 44.2816 41.6169 45.7761C40.0649 47.2531 38.0123 48.0012 35.5166 48.0012H12.4043C9.90857 48.0012 7.85596 47.2531 6.30505 45.7761C4.73364 44.2805 3.9375 42.2517 3.9375 39.7461C3.9375 38.7822 3.96936 37.8286 4.03308 36.9116C4.0979 35.9741 4.229 34.9539 4.42236 33.8776C4.61719 32.7925 4.86768 31.7667 5.1676 30.8292C5.47888 29.8588 5.90002 28.9015 6.42114 27.9845C6.9624 27.0327 7.59814 26.2036 8.31079 25.521C9.05786 24.8065 9.97119 24.2327 11.027 23.8145C12.0791 23.3984 13.2455 23.1875 14.4935 23.1875C14.9832 23.1875 15.4574 23.3878 16.3715 23.9833C16.9435 24.3564 17.6027 24.7813 18.3303 25.2463C18.9587 25.647 19.8098 26.0227 20.8619 26.3622C21.7866 26.6614 22.7252 26.8284 23.6525 26.8573C23.7546 26.861 23.8568 26.8628 23.959 26.8628C24.9888 26.8628 26.0303 26.694 27.0571 26.3622C28.1093 26.0227 28.9614 25.647 29.5895 25.2463C30.3248 24.7765 30.984 24.3521 31.5476 23.9844C32.4624 23.3878 32.9359 23.1875 33.4266 23.1875C34.6736 23.1875 35.84 23.3984 36.8928 23.8145C37.9486 24.2327 38.8619 24.8076 39.6083 25.521C40.322 26.2036 40.9578 27.0327 41.4987 27.9845C42.0201 28.9022 42.442 29.8588 42.7522 30.8281C43.0525 31.7667 43.3037 32.7925 43.4985 33.8783C43.6908 34.9557 43.8223 35.976 43.8867 36.9109C43.9515 37.825 43.9834 38.7786 43.9845 39.7461Z" fill="#6AFFE4"/>
<path d="M23.6578 23.1215H23.6523V0H23.6578C26.8336 0 29.5839 1.13928 31.8324 3.38672C34.0798 5.63416 35.2191 8.3844 35.2191 11.5602C35.2191 14.7371 34.0798 17.4869 31.8324 19.7347C29.585 21.9822 26.8347 23.1215 23.6578 23.1215Z" fill="#F5A86C"/>
<path d="M43.9844 39.7461C43.9844 42.2524 43.1871 44.2816 41.6168 45.7761C40.0648 47.2531 38.0122 48.0012 35.5165 48.0012H23.6523V26.8573C23.7545 26.861 23.8567 26.8628 23.9589 26.8628C24.9886 26.8628 26.0302 26.694 27.057 26.3622C28.1091 26.0227 28.9613 25.647 29.5894 25.2463C30.3247 24.7765 30.9839 24.3521 31.5475 23.9844C32.4623 23.3878 32.9358 23.1875 33.4265 23.1875C34.6735 23.1875 35.8398 23.3984 36.8927 23.8145C37.9485 24.2327 38.8618 24.8076 39.6082 25.521C40.3219 26.2036 40.9576 27.0327 41.4985 27.9845C42.02 28.9022 42.4419 29.8588 42.7521 30.8281C43.0524 31.7667 43.3036 32.7925 43.4984 33.8783C43.6907 34.9557 43.8221 35.976 43.8866 36.9109C43.9514 37.825 43.9833 38.7786 43.9844 39.7461Z" fill="url(#paint0_linear)"/>
</g>
<defs>
<linearGradient id="paint0_linear" x1="19.856" y1="23.1875" x2="48.5598" y2="30.3271" gradientUnits="userSpaceOnUse">
<stop stop-color="#4BD8B5"/>
<stop offset="1" stop-color="#49D6DF"/>
</linearGradient>
<clipPath id="clip0">
<rect width="48" height="48" fill="white"/>
</clipPath>
</defs>
</svg>
