<!-- Generated by IcoMoon.io -->
<svg version="1.1" xmlns="http://www.w3.org/2000/svg" width="40" height="40" viewBox="0 0 1280 1280">
<title></title>
<g id="icomoon-ignore">
</g>
<path fill="#000" d="M1162.576 376.57c-13.171-46.142-48.776-81.742-93.964-94.686l-0.971-0.236c-85.014-22.778-427.152-22.778-427.152-22.778s-341.276-0.451-427.153 22.778c-46.142 13.171-81.743 48.776-94.686 93.964l-0.236 0.971c-15.1 77.762-23.749 167.184-23.749 258.62 0 1.855 0.004 3.713 0.017 5.565l-0.001-0.288c-0.005 1.274-0.008 2.789-0.008 4.306 0 91.438 8.643 180.85 25.138 267.479l-1.405-8.876c13.171 46.143 48.776 81.743 93.964 94.686l0.971 0.236c84.92 22.82 427.152 22.82 427.152 22.82s341.227 0 427.153-22.82c46.142-13.171 81.743-48.776 94.686-93.964l0.236-0.971c14.477-76.156 22.758-163.756 22.758-253.281 0-3.383-0.019-6.757-0.030-10.13l0.004 0.514c0.025-3.146 0.035-6.859 0.035-10.579 0-89.54-8.283-177.155-24.128-262.098l1.36 8.789zM531.315 803.722v-326.996l284.772 163.755z"></path>
</svg>
