<svg width="14" height="14" viewBox="0 0 14 14" fill="none" xmlns="http://www.w3.org/2000/svg">
<path fill-rule="evenodd" clip-rule="evenodd" d="M11.7487 7.62401C11.7727 7.42401 11.7887 7.21601 11.7887 7.00001C11.7887 6.78401 11.7727 6.57601 11.7407 6.37601L13.0927 5.32001C13.2127 5.22401 13.2447 5.04801 13.1727 4.91201L11.8927 2.69601C11.8127 2.55201 11.6447 2.50401 11.5007 2.55201L9.90868 3.19201C9.57268 2.93601 9.22068 2.72801 8.82868 2.56801L8.58868 0.872006C8.56468 0.712006 8.42868 0.600006 8.26868 0.600006H5.70868C5.54868 0.600006 5.42068 0.712006 5.39668 0.872006L5.15668 2.56801C4.76468 2.72801 4.40468 2.94401 4.07668 3.19201L2.48468 2.55201C2.34068 2.49601 2.17268 2.55201 2.09268 2.69601L0.812678 4.91201C0.732678 5.05601 0.764678 5.22401 0.892678 5.32001L2.24468 6.37601C2.21268 6.57601 2.18868 6.79201 2.18868 7.00001C2.18868 7.20801 2.20468 7.42401 2.23668 7.62401L0.884678 8.68001C0.764678 8.77601 0.732678 8.95201 0.804678 9.08801L2.08468 11.304C2.16468 11.448 2.33268 11.496 2.47668 11.448L4.06868 10.808C4.40468 11.064 4.75668 11.272 5.14868 11.432L5.38868 13.128C5.42068 13.288 5.54868 13.4 5.70868 13.4H8.26868C8.42868 13.4 8.56468 13.288 8.58068 13.128L8.82068 11.432C9.21268 11.272 9.57268 11.056 9.90068 10.808L11.4927 11.448C11.6367 11.504 11.8047 11.448 11.8847 11.304L13.1647 9.08801C13.2447 8.94401 13.2127 8.77601 13.0847 8.68001L11.7487 7.62401ZM6.98867 9.40001C5.66867 9.40001 4.58867 8.32001 4.58867 7.00001C4.58867 5.68001 5.66867 4.60001 6.98867 4.60001C8.30867 4.60001 9.38867 5.68001 9.38867 7.00001C9.38867 8.32001 8.30867 9.40001 6.98867 9.40001Z" fill="#2F80ED"/>
</svg>
